<?xml version="1.0" standalone="no"?>
<!DOCTYPE svg PUBLIC "-//W3C//DTD SVG 20010904//EN"
 "http://www.w3.org/TR/2001/REC-SVG-20010904/DTD/svg10.dtd">
<svg version="1.0" xmlns="http://www.w3.org/2000/svg"
 width="300.000000pt" height="300.000000pt" viewBox="0 0 300.000000 300.000000"
 preserveAspectRatio="xMidYMid meet">

<g transform="translate(0.000000,300.000000) scale(0.100000,-0.100000)"
fill="#ff0000" stroke="none">
<path d="M10 2675 c0 -2 81 -135 179 -295 l180 -290 -135 0 -134 0 0 -245 0
-245 287 -2 287 -3 390 -633 c215 -347 393 -632 396 -631 3 0 189 286 415 635
l409 634 303 0 303 0 0 245 0 245 -144 0 -145 0 183 283 c100 155 186 288 190
295 6 9 -293 12 -1478 12 -817 0 -1486 -2 -1486 -5z m2084 -457 c-4 -7 -25
-39 -46 -70 l-39 -58 -519 0 -519 0 -37 63 c-20 34 -39 65 -41 70 -2 4 269 7
602 7 482 0 605 -3 599 -12z m-3 -241 c43 -29 61 -67 61 -127 0 -85 -52 -140
-132 -140 -86 0 -134 53 -133 147 0 60 19 95 66 123 43 27 96 25 138 -3z
m-1241 -26 c11 -22 23 -42 28 -45 4 -2 19 15 32 40 21 38 29 44 58 44 31 0 32
-1 21 -22 -7 -13 -25 -42 -41 -66 l-30 -43 40 -67 40 -67 -26 -6 c-35 -7 -39
-5 -62 42 -11 21 -24 39 -28 39 -4 0 -19 -20 -33 -44 -23 -38 -30 -42 -57 -38
l-30 4 34 54 c19 30 37 61 40 69 3 8 -13 44 -35 80 l-41 65 35 0 c30 0 37 -5
55 -39z m472 -96 c26 -71 48 -131 48 -132 0 -2 -14 -3 -30 -3 -23 0 -33 6 -40
25 -8 22 -15 25 -60 25 -45 0 -52 -3 -60 -25 -7 -19 -17 -25 -41 -25 -22 0
-30 4 -26 14 3 7 25 68 49 135 l43 122 35 -3 35 -3 47 -130z m300 43 l53 -93
3 93 c3 90 3 92 27 92 l25 0 0 -138 0 -139 -30 5 c-25 4 -38 18 -83 91 l-52
86 -5 -90 c-5 -85 -6 -90 -27 -91 -23 -1 -23 1 -23 138 l0 138 29 0 c27 0 35
-9 83 -92z m-542 -155 c0 -23 -4 -28 -25 -28 -21 0 -25 5 -25 28 0 22 4 27 25
27 21 0 25 -5 25 -27z m370 0 c0 -23 -4 -28 -25 -28 -21 0 -25 5 -25 28 0 22
4 27 25 27 21 0 25 -5 25 -27z m390 0 c0 -23 -4 -28 -25 -28 -21 0 -25 5 -25
28 0 22 4 27 25 27 21 0 25 -5 25 -27z m410 0 c0 -23 -4 -28 -25 -28 -21 0
-25 5 -25 28 0 22 4 27 25 27 21 0 25 -5 25 -27z m-566 -155 c-43 -74 -198
-308 -204 -308 -7 0 -200 304 -200 315 0 3 93 5 206 5 161 0 204 -3 198 -12z"/>
<path d="M1977 1930 c-51 -40 -39 -152 17 -166 62 -15 102 24 100 99 -1 31 -8
46 -28 64 -33 28 -56 29 -89 3z m93 -75 c0 -23 -3 -25 -50 -25 -47 0 -50 2
-50 25 0 23 3 25 50 25 47 0 50 -2 50 -25z"/>
<path d="M1218 1870 l-16 -50 35 0 c32 0 35 2 29 25 -8 32 -25 75 -29 75 -2 0
-10 -22 -19 -50z"/>
</g>
</svg>
